<?xml version="1.0" encoding="utf-8"?>
<!-- Generator: Adobe Illustrator 16.0.4, SVG Export Plug-In . SVG Version: 6.00 Build 0)  -->
<!DOCTYPE svg PUBLIC "-//W3C//DTD SVG 1.1//EN" "http://www.w3.org/Graphics/SVG/1.1/DTD/svg11.dtd">
<svg version="1.1" id="Layer_1" xmlns="http://www.w3.org/2000/svg" xmlns:xlink="http://www.w3.org/1999/xlink" x="0px" y="0px"
	 width="420px" height="420px" viewBox="0 0 420 420" enable-background="new 0 0 420 420" xml:space="preserve">
<polygon opacity="0.1" enable-background="new    " points="210.471,289.782 338.508,353.801 210.471,417.818 82.434,353.801 "/>
<linearGradient id="SVGID_1_" gradientUnits="userSpaceOnUse" x1="326" y1="189.4409" x2="84.1616" y2="189.4409">
	<stop  offset="0.3558" style="stop-color:#CDCBCA"/>
	<stop  offset="1" style="stop-color:#989897"/>
</linearGradient>
<polygon fill="url(#SVGID_1_)" points="326,74 302.5,60.5 274.5,71.68 272.5,46 248.5,33 221,46.5 218.5,19 194.087,7.225 
	84.303,67.68 84.162,303.003 110.902,318.579 139.617,302.509 139,330 166.5,344.5 188.758,328.682 190.511,356.075 
	216.447,371.657 324,316.061 "/>
<g>
	<linearGradient id="SVGID_2_" gradientUnits="userSpaceOnUse" x1="86.4863" y1="148.0703" x2="186.7063" y2="173.058">
		<stop  offset="0" style="stop-color:#FFFFFF"/>
		<stop  offset="1" style="stop-color:#CDCCCB"/>
	</linearGradient>
	<path fill="url(#SVGID_2_)" d="M139.617,116.998c0-15.344,0-23.017,15.345-30.688l61.774-33.696v-15.44
		c0-15.346,0-23.018-15.346-15.346l-84.396,46.036c-15.346,7.671-15.346,15.343-15.346,30.688v198.072
		c0,7.673,0,23.019,15.346,15.346l22.623-11.533V116.998z"/>
</g>
<linearGradient id="SVGID_3_" gradientUnits="userSpaceOnUse" x1="139.8008" y1="174.3643" x2="240.0615" y2="199.3621">
	<stop  offset="0" style="stop-color:#FFFFFF"/>
	<stop  offset="1" style="stop-color:#CDCCCB"/>
</linearGradient>
<path fill="url(#SVGID_3_)" d="M192.757,143.569c0-15.345,0-23.018,15.345-30.689l61.948-33.79V63.469
	c0-15.347,0-23.02-15.345-15.347l-84.396,46.034c-15.346,7.672-15.346,15.344-15.346,30.689v198.072c0,7.672,0,23.019,15.346,15.347
	l22.448-11.444V143.569z"/>
<linearGradient id="SVGID_4_" gradientUnits="userSpaceOnUse" x1="460.3301" y1="-191.0947" x2="633.6662" y2="-147.8772" gradientTransform="matrix(1 0 0 -1 -281 50)">
	<stop  offset="0" style="stop-color:#FFFFFF"/>
	<stop  offset="1" style="stop-color:#CDCCCB"/>
</linearGradient>
<path fill="url(#SVGID_4_)" d="M208.102,151.414c0-15.344,0-23.016,15.347-30.688l84.395-46.035
	c15.347-7.674,15.347,0,15.347,15.344v201.082c0,7.673,0,23.018-15.347,30.689l-84.395,43.024
	c-15.347,7.672-15.347-7.673-15.347-15.347V151.414z"/>
<polygon fill="#343433" points="315.516,268.102 215.775,321.809 215.775,174.431 315.516,120.727 "/>
<path fill="#CECECE" d="M284.037,162.491c0.443-0.216,8.875-4.32,8.91,6.613c0.035,10.935,0.229,71.068,0.264,82.003
	c0.035,10.934-8.396,15.037-8.841,15.254l-35.504,17.281c-0.443,0.215-8.87,4.316-8.904-6.617
	c-0.035-10.936-0.252-78.448-0.265-82.002c-0.033-10.934,8.393-15.035,8.836-15.251L284.037,162.491z M288.741,242.331
	c-0.035-10.935-0.158-49.199-0.193-60.133c-0.019-5.472-4.235-3.418-4.458-3.311l-35.504,17.281
	c-0.223,0.108-4.436,2.159-4.418,7.631c0.008,2.46,0.158,49.199,0.193,60.133c0.018,5.473,4.229,3.422,4.451,3.313l35.504-17.281
	C284.539,249.855,288.759,247.803,288.741,242.331"/>
<path fill="#343433" d="M330.751,77.792c-0.666-5.398-2.564-9.31-5.657-11.681c-0.618-0.637-19.95-10.127-21.236-10.102
	c-5.156-0.741-10.75,1.355-15.192,3.812l-10.619,5.792l0.003-3.729c0.021-7.39,0.479-17.301-6.094-22.342
	c-0.618-0.637-19.951-10.129-21.236-10.103c-5.172-0.747-10.732,1.373-15.195,3.812l-10.793,5.887c0,0,0.53-20.737-6.037-25.834
	c-0.629-0.662-20.002-10.187-21.285-10.16c-5.18-0.729-10.722,1.37-15.194,3.814L97.94,52.928
	C78.306,62.8,78.304,75.119,78.304,90.705v198.072c0,8.159,0.542,18.194,8.131,23.127c0.591,0.584,19.784,9.984,21.056,9.984
	c4.726,0.682,8.894-0.957,13.136-2.791l10.991-5.604c0,0,0.541,19.772,8.131,24.704c0.591,0.584,19.782,9.983,21.054,9.983
	c4.728,0.682,8.893-0.956,13.137-2.791l10.816-5.515c0,0,0.542,19.965,8.134,24.896c0.59,0.582,19.779,9.979,21.051,9.979
	c4.686,0.676,8.945-0.904,13.139-2.791l84.367-43.011c19.738-9.889,19.738-29.469,19.738-37.831v-0.173
	C331.186,290.945,331.206,81.458,330.751,77.792C330.085,72.394,331.206,81.458,330.751,77.792z M135.841,107.094l-26.521,14.474
	v147.377l26.297-14.354v47.709l-18.625,9.494c-2.711,1.355-6.038,2.65-9.108,1.85l-0.483,0.242l-15.346-7.674l0.483-0.24
	c-6.23-1.635-6.237-11.515-6.237-17.195V90.705c0-15.344,0-23.016,15.345-30.687l84.396-46.037c3.09-1.543,7.626-3.936,11.199-2.681
	l0.312-0.153l15.344,7.672l-0.312,0.155c4.123,1.451,4.147,8.126,4.147,18.025V48.06l-63.625,34.706
	C139.688,89.494,136.568,97.028,135.841,107.094z M188.987,133.584l-26.351,14.277v147.375l26.122-14.153v47.599l-18.45,9.405
	c-2.71,1.355-6.039,2.652-9.108,1.851l-0.483,0.242l-15.345-7.674l0.482-0.242c-6.231-1.634-6.237-11.514-6.237-17.193V116.998
	c0-15.344,0-23.017,15.345-30.688l84.396-46.035c3.09-1.543,7.627-3.938,11.199-2.682l0.312-0.154l15.345,7.672l-0.312,0.154
	c4.123,1.452,4.146,8.127,4.146,18.026v11.243l-63.801,34.8C192.863,116.045,189.725,123.558,188.987,133.584z M323.19,291.117
	c0,7.673,0,23.018-15.347,30.689l-84.395,43.024c-4.119,2.059-7.125,2.449-9.329,1.786l-0.265,0.132l-15.345-7.674l0.482-0.24
	c-6.23-1.635-6.236-11.515-6.236-17.194V143.569c0-6.255-0.406-13.154,2.249-18.997c2.524-5.555,7.812-9.051,13.096-11.692
	l84.397-46.035c3.087-1.544,7.627-3.94,11.197-2.682l0.312-0.154l15.345,7.672l-0.312,0.154c3.386,1.192,3.743,5.862,3.956,8.874
	c0,0.003,0.001,0.006,0.001,0.009C323.023,81.092,323.19,291.117,323.19,291.117z"/>
</svg>
